<mxfile host="app.diagrams.net" modified="2021-12-28T02:51:05.692Z" agent="5.0 (Windows NT 10.0; Win64; x64) AppleWebKit/537.36 (KHTML, like Gecko) Chrome/96.0.4664.110 Safari/537.36" etag="CvjRY5E9YtmwsXI3IAvN" version="16.1.0" type="github">
  <diagram id="OCLmYliL-QsjUEEW-w4G" name="Page-1">
    <mxGraphModel dx="15172" dy="11635" grid="1" gridSize="10" guides="1" tooltips="1" connect="1" arrows="1" fold="1" page="1" pageScale="1" pageWidth="827" pageHeight="1169" math="0" shadow="0">
      <root>
        <mxCell id="0" />
        <mxCell id="1" parent="0" />
        <mxCell id="vn0Vrh5mU_HgXY0BwfP5-6" value="" style="ellipse;whiteSpace=wrap;html=1;" vertex="1" parent="1">
          <mxGeometry x="-5250" y="4770" width="120" height="80" as="geometry" />
        </mxCell>
        <mxCell id="vn0Vrh5mU_HgXY0BwfP5-7" value="" style="ellipse;whiteSpace=wrap;html=1;" vertex="1" parent="1">
          <mxGeometry x="11810" y="70" width="120" height="290" as="geometry" />
        </mxCell>
        <mxCell id="vn0Vrh5mU_HgXY0BwfP5-8" value="" style="ellipse;whiteSpace=wrap;html=1;" vertex="1" parent="1">
          <mxGeometry x="11270" y="-10030" width="330" height="290" as="geometry" />
        </mxCell>
        <mxCell id="vn0Vrh5mU_HgXY0BwfP5-9" value="" style="ellipse;whiteSpace=wrap;html=1;" vertex="1" parent="1">
          <mxGeometry x="-12970" y="-4740" width="390" height="210" as="geometry" />
        </mxCell>
        <mxCell id="vn0Vrh5mU_HgXY0BwfP5-10" value="" style="ellipse;whiteSpace=wrap;html=1;aspect=fixed;fillColor=#fa6800;fontColor=#000000;strokeColor=#C73500;" vertex="1" parent="1">
          <mxGeometry x="610" y="-5740" width="100" height="100" as="geometry" />
        </mxCell>
        <mxCell id="vn0Vrh5mU_HgXY0BwfP5-11" value="Mang MT&lt;br&gt;" style="text;html=1;strokeColor=none;fillColor=none;align=center;verticalAlign=middle;whiteSpace=wrap;rounded=0;fontColor=#E6FFCC;" vertex="1" parent="1">
          <mxGeometry x="630" y="-5705" width="60" height="30" as="geometry" />
        </mxCell>
        <mxCell id="vn0Vrh5mU_HgXY0BwfP5-25" style="edgeStyle=none;rounded=0;orthogonalLoop=1;jettySize=auto;html=1;exitX=0;exitY=0.5;exitDx=0;exitDy=0;fontColor=#000000;entryX=1;entryY=0.5;entryDx=0;entryDy=0;" edge="1" parent="1" source="vn0Vrh5mU_HgXY0BwfP5-12" target="vn0Vrh5mU_HgXY0BwfP5-20">
          <mxGeometry relative="1" as="geometry">
            <mxPoint x="339.9999999999982" y="-5559.461538461539" as="targetPoint" />
          </mxGeometry>
        </mxCell>
        <mxCell id="vn0Vrh5mU_HgXY0BwfP5-26" style="edgeStyle=none;rounded=0;orthogonalLoop=1;jettySize=auto;html=1;exitX=0;exitY=0.5;exitDx=0;exitDy=0;entryX=1;entryY=0.5;entryDx=0;entryDy=0;fontColor=#000000;" edge="1" parent="1" source="vn0Vrh5mU_HgXY0BwfP5-12" target="vn0Vrh5mU_HgXY0BwfP5-18">
          <mxGeometry relative="1" as="geometry" />
        </mxCell>
        <mxCell id="vn0Vrh5mU_HgXY0BwfP5-27" style="edgeStyle=none;rounded=0;orthogonalLoop=1;jettySize=auto;html=1;exitX=0;exitY=0.5;exitDx=0;exitDy=0;entryX=1;entryY=0.5;entryDx=0;entryDy=0;fontColor=#000000;" edge="1" parent="1" source="vn0Vrh5mU_HgXY0BwfP5-12" target="vn0Vrh5mU_HgXY0BwfP5-22">
          <mxGeometry relative="1" as="geometry" />
        </mxCell>
        <mxCell id="vn0Vrh5mU_HgXY0BwfP5-28" style="edgeStyle=none;rounded=0;orthogonalLoop=1;jettySize=auto;html=1;exitX=0.5;exitY=1;exitDx=0;exitDy=0;entryX=0.5;entryY=0;entryDx=0;entryDy=0;fontColor=#000000;" edge="1" parent="1" source="vn0Vrh5mU_HgXY0BwfP5-12" target="vn0Vrh5mU_HgXY0BwfP5-16">
          <mxGeometry relative="1" as="geometry" />
        </mxCell>
        <mxCell id="vn0Vrh5mU_HgXY0BwfP5-29" style="edgeStyle=none;rounded=0;orthogonalLoop=1;jettySize=auto;html=1;exitX=0.5;exitY=1;exitDx=0;exitDy=0;entryX=0.5;entryY=0;entryDx=0;entryDy=0;fontColor=#000000;" edge="1" parent="1" source="vn0Vrh5mU_HgXY0BwfP5-12" target="vn0Vrh5mU_HgXY0BwfP5-14">
          <mxGeometry relative="1" as="geometry" />
        </mxCell>
        <mxCell id="vn0Vrh5mU_HgXY0BwfP5-12" value="" style="whiteSpace=wrap;html=1;aspect=fixed;fontColor=#E6FFCC;" vertex="1" parent="1">
          <mxGeometry x="410" y="-5580" width="120" height="120" as="geometry" />
        </mxCell>
        <mxCell id="vn0Vrh5mU_HgXY0BwfP5-13" value="Chương 1&lt;br&gt;" style="text;html=1;strokeColor=none;fillColor=none;align=center;verticalAlign=middle;whiteSpace=wrap;rounded=0;fontColor=#000000;" vertex="1" parent="1">
          <mxGeometry x="440" y="-5540" width="60" height="30" as="geometry" />
        </mxCell>
        <mxCell id="vn0Vrh5mU_HgXY0BwfP5-14" value="" style="shape=hexagon;perimeter=hexagonPerimeter2;whiteSpace=wrap;html=1;fixedSize=1;fontColor=#000000;" vertex="1" parent="1">
          <mxGeometry x="310" y="-4920" width="160" height="50" as="geometry" />
        </mxCell>
        <mxCell id="vn0Vrh5mU_HgXY0BwfP5-15" value="Các lớp giao thức, các mô hình dịch vụ" style="text;html=1;strokeColor=none;fillColor=none;align=center;verticalAlign=middle;whiteSpace=wrap;rounded=0;fontColor=#000000;" vertex="1" parent="1">
          <mxGeometry x="330" y="-4910" width="120" height="30" as="geometry" />
        </mxCell>
        <mxCell id="vn0Vrh5mU_HgXY0BwfP5-16" value="" style="shape=hexagon;perimeter=hexagonPerimeter2;whiteSpace=wrap;html=1;fixedSize=1;fontColor=#000000;" vertex="1" parent="1">
          <mxGeometry x="-10" y="-5080" width="160" height="50" as="geometry" />
        </mxCell>
        <mxCell id="vn0Vrh5mU_HgXY0BwfP5-17" value="Độ trễ sự mất mát" style="text;html=1;strokeColor=none;fillColor=none;align=center;verticalAlign=middle;whiteSpace=wrap;rounded=0;fontColor=#000000;" vertex="1" parent="1">
          <mxGeometry x="10" y="-5070" width="120" height="30" as="geometry" />
        </mxCell>
        <mxCell id="vn0Vrh5mU_HgXY0BwfP5-18" value="" style="shape=hexagon;perimeter=hexagonPerimeter2;whiteSpace=wrap;html=1;fixedSize=1;fontColor=#000000;" vertex="1" parent="1">
          <mxGeometry x="-110" y="-5490" width="160" height="50" as="geometry" />
        </mxCell>
        <mxCell id="vn0Vrh5mU_HgXY0BwfP5-19" value="Mạng biên" style="text;html=1;strokeColor=none;fillColor=none;align=center;verticalAlign=middle;whiteSpace=wrap;rounded=0;fontColor=#000000;" vertex="1" parent="1">
          <mxGeometry x="-90" y="-5480" width="120" height="30" as="geometry" />
        </mxCell>
        <mxCell id="vn0Vrh5mU_HgXY0BwfP5-31" style="edgeStyle=none;rounded=0;orthogonalLoop=1;jettySize=auto;html=1;exitX=0;exitY=0.5;exitDx=0;exitDy=0;entryX=1;entryY=0.5;entryDx=0;entryDy=0;fontColor=#000000;" edge="1" parent="1" source="vn0Vrh5mU_HgXY0BwfP5-20" target="vn0Vrh5mU_HgXY0BwfP5-30">
          <mxGeometry relative="1" as="geometry" />
        </mxCell>
        <mxCell id="vn0Vrh5mU_HgXY0BwfP5-20" value="" style="shape=hexagon;perimeter=hexagonPerimeter2;whiteSpace=wrap;html=1;fixedSize=1;fontColor=#000000;" vertex="1" parent="1">
          <mxGeometry x="-140" y="-5640" width="160" height="50" as="geometry" />
        </mxCell>
        <mxCell id="vn0Vrh5mU_HgXY0BwfP5-21" value="Internet là gì ?&amp;nbsp;" style="text;html=1;strokeColor=none;fillColor=none;align=center;verticalAlign=middle;whiteSpace=wrap;rounded=0;fontColor=#000000;" vertex="1" parent="1">
          <mxGeometry x="-120" y="-5630" width="120" height="30" as="geometry" />
        </mxCell>
        <mxCell id="vn0Vrh5mU_HgXY0BwfP5-22" value="" style="shape=hexagon;perimeter=hexagonPerimeter2;whiteSpace=wrap;html=1;fixedSize=1;fontColor=#000000;" vertex="1" parent="1">
          <mxGeometry x="-100" y="-5350" width="160" height="50" as="geometry" />
        </mxCell>
        <mxCell id="vn0Vrh5mU_HgXY0BwfP5-23" value="Mạng lõi&amp;nbsp;" style="text;html=1;strokeColor=none;fillColor=none;align=center;verticalAlign=middle;whiteSpace=wrap;rounded=0;fontColor=#000000;" vertex="1" parent="1">
          <mxGeometry x="-80" y="-5340" width="120" height="30" as="geometry" />
        </mxCell>
        <mxCell id="vn0Vrh5mU_HgXY0BwfP5-35" style="edgeStyle=none;rounded=0;orthogonalLoop=1;jettySize=auto;html=1;exitX=0;exitY=0.25;exitDx=0;exitDy=0;entryX=1;entryY=0.5;entryDx=0;entryDy=0;fontSize=26;fontColor=#000000;" edge="1" parent="1" source="vn0Vrh5mU_HgXY0BwfP5-30" target="vn0Vrh5mU_HgXY0BwfP5-33">
          <mxGeometry relative="1" as="geometry" />
        </mxCell>
        <mxCell id="vn0Vrh5mU_HgXY0BwfP5-36" style="edgeStyle=none;rounded=0;orthogonalLoop=1;jettySize=auto;html=1;exitX=0;exitY=0.5;exitDx=0;exitDy=0;entryX=1;entryY=0.25;entryDx=0;entryDy=0;fontSize=26;fontColor=#000000;" edge="1" parent="1" source="vn0Vrh5mU_HgXY0BwfP5-30" target="vn0Vrh5mU_HgXY0BwfP5-34">
          <mxGeometry relative="1" as="geometry" />
        </mxCell>
        <mxCell id="vn0Vrh5mU_HgXY0BwfP5-39" style="edgeStyle=none;rounded=0;orthogonalLoop=1;jettySize=auto;html=1;exitX=0;exitY=1;exitDx=0;exitDy=0;entryX=1;entryY=0;entryDx=0;entryDy=0;fontSize=20;fontColor=#000000;" edge="1" parent="1" source="vn0Vrh5mU_HgXY0BwfP5-30" target="vn0Vrh5mU_HgXY0BwfP5-38">
          <mxGeometry relative="1" as="geometry" />
        </mxCell>
        <mxCell id="vn0Vrh5mU_HgXY0BwfP5-30" value="&lt;h1 style=&quot;font-size: 32px&quot;&gt;&lt;font style=&quot;font-size: 32px&quot;&gt;&amp;nbsp; Nut and bolts&lt;/font&gt;&lt;/h1&gt;&lt;p style=&quot;font-size: 32px&quot;&gt;&lt;font style=&quot;font-size: 32px&quot;&gt;.&lt;/font&gt;&lt;/p&gt;" style="text;html=1;strokeColor=none;fillColor=none;spacing=5;spacingTop=-20;whiteSpace=wrap;overflow=hidden;rounded=0;fontColor=#000000;" vertex="1" parent="1">
          <mxGeometry x="-700" y="-5720" width="260" height="50" as="geometry" />
        </mxCell>
        <mxCell id="vn0Vrh5mU_HgXY0BwfP5-33" value="&lt;h1 style=&quot;font-size: 20px&quot;&gt;&lt;font style=&quot;font-size: 20px&quot;&gt;Internet&amp;nbsp; &#39;&#39;Mạng của các mạng&#39;&#39; (ISPs - Internet sevice providers )&lt;/font&gt;&lt;/h1&gt;&lt;div style=&quot;font-size: 20px&quot;&gt;&lt;br&gt;&lt;/div&gt;" style="text;html=1;strokeColor=none;fillColor=none;spacing=5;spacingTop=-20;whiteSpace=wrap;overflow=hidden;rounded=0;fontColor=#000000;" vertex="1" parent="1">
          <mxGeometry x="-1290" y="-5800" width="400" height="70" as="geometry" />
        </mxCell>
        <mxCell id="vn0Vrh5mU_HgXY0BwfP5-34" value="&lt;font style=&quot;font-size: 20px&quot;&gt;Các giao thức&amp;nbsp; điểu khiển&lt;br&gt;- TCP -&lt;br&gt;- IP&lt;br&gt;-HTTP&amp;nbsp;&lt;br&gt;&lt;/font&gt;&lt;div style=&quot;font-size: 20px&quot;&gt;&lt;span&gt;&lt;font style=&quot;font-size: 20px&quot;&gt;-SKYPE...&lt;/font&gt;&lt;/span&gt;&lt;/div&gt;&lt;font style=&quot;font-size: 20px&quot;&gt;-802.11 ( mạng wifi )&lt;br&gt;&amp;nbsp;&lt;/font&gt;" style="text;html=1;strokeColor=none;fillColor=none;align=left;verticalAlign=middle;whiteSpace=wrap;rounded=0;fontColor=#000000;fontStyle=1;fontSize=26;" vertex="1" parent="1">
          <mxGeometry x="-1280" y="-5660" width="260" height="230" as="geometry" />
        </mxCell>
        <mxCell id="vn0Vrh5mU_HgXY0BwfP5-38" value="&lt;font style=&quot;font-size: 20px&quot;&gt;Các chuẩn internet:&amp;nbsp;&lt;br&gt;- RFC: request for comments&lt;br&gt;- IETF: Internet engineering task force&lt;br&gt;&lt;/font&gt;" style="text;html=1;strokeColor=none;fillColor=none;align=left;verticalAlign=middle;whiteSpace=wrap;rounded=0;fontColor=#000000;fontStyle=1;fontSize=26;" vertex="1" parent="1">
          <mxGeometry x="-1320" y="-5375" width="380" height="230" as="geometry" />
        </mxCell>
      </root>
    </mxGraphModel>
  </diagram>
</mxfile>
